<svg width="104" height="105" viewBox="0 0 104 105" fill="none" xmlns="http://www.w3.org/2000/svg">
<g filter="url(#filter0_d_0_154)">
<rect width="56" height="56" transform="translate(24 12)" fill="#3D55F9"/>
<path d="M70.9392 19.8173C68.4541 14.8357 62.4012 12.8118 57.4197 15.2969C56.4442 15.7834 55.5542 16.4249 54.7843 17.1965L52.793 19.1878C52.3555 19.625 51.6465 19.625 51.2093 19.1878L49.2157 17.1965C45.2767 13.2575 38.8903 13.2575 34.9513 17.1965C31.0124 21.1354 31.0123 27.5218 34.9513 31.4608L49.937 47.0937C51.0294 48.2332 52.8389 48.2711 53.9781 47.1786C54.007 47.1508 54.0353 47.1226 54.063 47.0937L69.0486 31.4608C72.121 28.392 72.8829 23.7005 70.9392 19.8173Z" fill="white"/>
<path d="M34.3578 49.7125C33.017 50.6076 32.5734 52.3734 33.3318 53.796L36.32 58.7621C36.6392 59.2923 36.4682 59.9807 35.9381 60.2999C35.408 60.6191 34.7195 60.4482 34.4003 59.918L31.3718 54.878C30.4565 53.1072 30.5635 50.9815 31.6518 49.3116C31.7739 49.1286 31.8394 48.9135 31.84 48.6933V42.2399C31.84 40.3843 30.3357 38.8799 28.48 38.8799C26.6243 38.8799 25.12 40.3843 25.12 42.2399V53.8229L25.12 53.8252C25.12 56.1147 25.8994 58.3361 27.33 60.1236L33.296 67.5788C33.5082 67.8444 33.8296 67.9994 34.1696 67.9999H43.04C43.6586 67.9999 44.16 67.4983 44.16 66.8799V60.1375L44.16 60.1373C44.1619 58.1439 43.5717 56.1949 42.4643 54.5375C38.2374 50.1359 36.9158 48.0056 34.3578 49.7125Z" fill="white"/>
<path d="M75.52 38.8799C73.6644 38.8799 72.16 40.3843 72.16 42.2399V48.6933C72.1607 48.9135 72.2261 49.1286 72.3482 49.3116C73.4366 50.9815 73.5434 53.1072 72.6282 54.878L69.5997 59.918C69.2805 60.4482 68.5921 60.6191 68.0619 60.2999C67.5317 59.9807 67.3608 59.2923 67.68 58.7621L70.6682 53.796C71.4266 52.3734 70.9829 50.6076 69.6422 49.7125C67.0842 48.0056 65.7626 50.1359 61.5357 54.5442C60.4282 56.2018 59.838 58.1508 59.84 60.1442V66.8799C59.84 67.4983 60.3415 67.9999 60.96 67.9999H69.8304C70.1704 67.9994 70.4919 67.8444 70.704 67.5788L76.6714 60.1218C78.1016 58.3338 78.8804 56.1124 78.88 53.8229V42.2399C78.88 40.3843 77.3756 38.8799 75.52 38.8799Z" fill="white"/>
</g>
<defs>
<filter id="filter0_d_0_154" x="0" y="0.5714" width="104" height="104" filterUnits="userSpaceOnUse" color-interpolation-filters="sRGB">
<feFlood flood-opacity="0" result="BackgroundImageFix"/>
<feColorMatrix in="SourceAlpha" type="matrix" values="0 0 0 0 0 0 0 0 0 0 0 0 0 0 0 0 0 0 127 0" result="hardAlpha"/>
<feOffset dy="12.5714"/>
<feGaussianBlur stdDeviation="12"/>
<feColorMatrix type="matrix" values="0 0 0 0 0.239216 0 0 0 0 0.333333 0 0 0 0 0.976471 0 0 0 0.2 0"/>
<feBlend mode="normal" in2="BackgroundImageFix" result="effect1_dropShadow_0_154"/>
<feBlend mode="normal" in="SourceGraphic" in2="effect1_dropShadow_0_154" result="shape"/>
</filter>
</defs>
</svg>
