<svg width="48" height="48" viewBox="0 0 48 48" fill="none" xmlns="http://www.w3.org/2000/svg">
<path d="M22.556 12.2677C22.5833 12.0716 22.4923 11.8779 22.324 11.7737C19.8 10.1997 14.066 7.71771 3.014 7.57371C2.46177 7.56598 2.00783 8.00736 2.0001 8.5596C2.00003 8.56429 2 8.56899 2 8.57371V40.1038C2 40.6507 2.43929 41.096 2.98611 41.1038C13.2881 41.2358 18.9741 43.4038 21.7561 44.9678C21.9094 45.0568 22.0987 45.0568 22.2521 44.9678C22.4057 44.8782 22.5002 44.7136 22.5001 44.5358V12.8917C22.5058 12.6827 22.5245 12.4743 22.556 12.2677Z" fill="#3D55F9"/>
<path d="M38.5 34.8918C38.4989 35.6224 37.972 36.2462 37.252 36.3696C34.0096 37.0006 31.0245 38.571 28.668 40.8856C27.8805 41.76 27.1917 42.7184 26.614 43.7438C26.4802 43.9854 26.5675 44.2896 26.8091 44.4235C26.9515 44.5024 27.1235 44.507 27.2701 44.4358C32.8731 42.0515 38.9277 40.9144 45.0141 41.1038C45.5608 41.096 46 40.6504 46 40.1038V8.57369V8.57361C46 8.02132 45.5523 7.57361 45 7.57361C44.9952 7.57361 44.9907 7.57364 44.9859 7.57372C42.7579 7.60172 40.7579 7.73169 38.9459 7.92569C38.6917 7.95332 38.4995 8.16811 38.5 8.42371V34.8918Z" fill="#3D55F9"/>
<path d="M35.136 33.8C35.3512 33.7384 35.4997 33.5418 35.5 33.3178V3.46794C35.5003 3.19178 35.2765 2.9677 35.0005 2.96741C34.9416 2.96735 34.8832 2.97767 34.828 2.99794C32.4923 3.78175 30.3797 5.11594 28.668 6.88794C26.996 8.50778 25.8858 10.62 25.5 12.9159V38.62C25.4998 38.896 25.7234 39.1202 25.9996 39.1202C26.1438 39.1205 26.281 39.0584 26.376 38.9498L26.422 38.8978C28.8027 36.4296 31.8179 34.6656 35.136 33.8Z" fill="#3D55F9"/>
<rect x="0.5" y="0.5" width="47" height="47" stroke="#3D55F9" stroke-opacity="0.08"/>
</svg>
