<svg width="104" height="105" viewBox="0 0 104 105" fill="none" xmlns="http://www.w3.org/2000/svg">
<g clip-path="url(#clip0_0_143)" filter="url(#filter0_d_0_143)">
<rect width="56" height="56" transform="translate(24 12)" fill="#3D55F9"/>
<path d="M56.987 14.0502C59.7208 16.7839 59.7208 21.2161 56.987 23.9497C54.2533 26.6834 49.8211 26.6834 47.0876 23.9497C44.3539 21.2161 44.3539 16.7839 47.0876 14.0502C49.8211 11.3166 54.2533 11.3166 56.987 14.0502Z" fill="white"/>
<path d="M78.7423 33.014C77.2576 31.7762 75.0505 31.9763 73.8129 33.461C73.8125 33.4614 73.8122 33.4617 73.812 33.462C72.7858 34.6928 71.2705 35.4103 69.668 35.4243H69.6143C68.0307 35.425 66.5255 34.7359 65.4913 33.5367C63.7133 31.488 63.7133 31.4694 63.5547 31.313C62.3931 30.1489 60.8149 29.4963 59.1703 29.5H44.8297H44.8297C43.1857 29.4959 41.6082 30.1486 40.4477 31.313C40.2867 31.4694 40.261 31.5184 38.511 33.5367C37.4759 34.736 35.9699 35.425 34.3857 35.4243H34.332C32.7303 35.4117 31.2149 34.696 30.188 33.4667C28.8872 32.0368 26.6736 31.9322 25.2438 33.233C23.8983 34.4571 23.7147 36.5077 24.8213 37.9513C27.1613 40.7555 30.6146 42.391 34.2667 42.4243H34.3857C37.5402 42.4376 40.5786 41.2353 42.8697 39.0667C43.1047 38.8464 43.4738 38.8583 43.6942 39.0933C43.7954 39.2011 43.8518 39.3434 43.852 39.4913L43.8823 51.76C43.8839 52.2537 44.196 52.6929 44.6617 52.8567L51.2253 55.1737C51.7275 55.3508 52.2749 55.3508 52.777 55.1737L59.3383 52.8567C59.8038 52.6929 60.116 52.2537 60.1177 51.76L60.148 39.4867C60.1485 39.1644 60.41 38.9038 60.7323 38.9043C60.8802 38.9045 61.0223 38.9607 61.1303 39.062C63.4214 41.2301 66.4599 42.4318 69.6143 42.4173H69.7333C73.3906 42.3861 76.8488 40.7467 79.188 37.935C80.4205 36.4519 80.221 34.2515 78.7423 33.014Z" fill="white"/>
<path d="M65.6967 53.0946L57.0633 56.1419C56.8307 56.2234 56.6751 56.4434 56.676 56.6903C56.6762 56.9369 56.8312 57.1572 57.0633 57.2409L62.045 59.0003C62.8547 59.2833 63.5913 59.7432 64.201 60.3466C64.5188 60.6609 64.9883 60.7659 65.4097 60.6173L68.023 59.6839C69.8346 59.0096 70.7567 56.9945 70.0826 55.1829C69.4239 53.4131 67.4803 52.4849 65.6897 53.0853L65.6967 53.0946Z" fill="white"/>
<path d="M61.2703 61.2011L38.3057 53.0951C36.4941 52.4207 34.4789 53.3429 33.8047 55.1545C33.1305 56.9661 34.0526 58.9814 35.8642 59.6555C35.9 59.6688 35.9361 59.6816 35.9723 59.6937L58.937 67.7997C59.3115 67.9332 59.7061 68.0011 60.1037 68.0004C62.0366 67.9995 63.603 66.4319 63.6023 64.499C63.6016 63.0169 62.6675 61.6957 61.2703 61.2011Z" fill="white"/>
</g>
<defs>
<filter id="filter0_d_0_143" x="0" y="0.5714" width="104" height="104" filterUnits="userSpaceOnUse" color-interpolation-filters="sRGB">
<feFlood flood-opacity="0" result="BackgroundImageFix"/>
<feColorMatrix in="SourceAlpha" type="matrix" values="0 0 0 0 0 0 0 0 0 0 0 0 0 0 0 0 0 0 127 0" result="hardAlpha"/>
<feOffset dy="12.5714"/>
<feGaussianBlur stdDeviation="12"/>
<feColorMatrix type="matrix" values="0 0 0 0 0.239216 0 0 0 0 0.333333 0 0 0 0 0.976471 0 0 0 0.2 0"/>
<feBlend mode="normal" in2="BackgroundImageFix" result="effect1_dropShadow_0_143"/>
<feBlend mode="normal" in="SourceGraphic" in2="effect1_dropShadow_0_143" result="shape"/>
</filter>
<clipPath id="clip0_0_143">
<rect width="56" height="56" fill="white" transform="translate(24 12)"/>
</clipPath>
</defs>
</svg>
