<svg width="48" height="48" viewBox="0 0 48 48" fill="none" xmlns="http://www.w3.org/2000/svg">
<path d="M48 20.5C48 19.3954 47.1045 18.5 46 18.5H2C0.895429 18.5 0 19.3954 0 20.5C4.82821e-08 21.6046 0.895429 22.5 2 22.5H3.84C4.11117 22.4999 4.33256 22.7169 4.338 22.988V22.988C4.49544 30.4968 8.94024 37.252 15.774 40.368C16.0254 40.4821 16.1368 40.7784 16.0227 41.0299C15.9761 41.1325 15.8962 41.2165 15.796 41.268C13.6137 42.3987 11.6861 43.964 10.132 45.868C9.78293 46.296 9.84693 46.9259 10.275 47.2749C10.4531 47.4203 10.676 47.4997 10.906 47.5H37.0939C37.6461 47.4995 38.0936 47.0512 38.0931 46.4989C38.0928 46.2691 38.0133 46.0461 37.868 45.868C36.3136 43.9635 34.3853 42.3979 32.2019 41.268C31.9563 41.1419 31.8597 40.8403 31.9859 40.5947C32.0373 40.4944 32.1213 40.4147 32.224 40.368C39.0584 37.2525 43.5043 30.4973 43.6619 22.988C43.6675 22.7169 43.8888 22.4999 44.16 22.5H46C47.1045 22.5 48 21.6046 48 20.5Z" fill="#3D55F9"/>
<path d="M28.0104 13.744C27.5931 14.1055 27.5475 14.7371 27.9091 15.1546C28.0989 15.3738 28.3744 15.4999 28.6645 15.5H36.9125C37.2027 15.4999 37.4787 15.3736 37.6685 15.154L46.4584 5.01201C47.4256 3.83249 47.2536 2.09216 46.0741 1.12492C45.0563 0.290242 43.5907 0.289866 42.5725 1.12402L28.0104 13.744Z" fill="#3D55F9"/>
<rect x="0.5" y="0.5" width="47" height="47" stroke="#3D55F9" stroke-opacity="0.08"/>
</svg>
